<?xml version="1.0" standalone="no"?>
<!DOCTYPE svg PUBLIC "-//W3C//DTD SVG 20010904//EN"
 "http://www.w3.org/TR/2001/REC-SVG-20010904/DTD/svg10.dtd">
<svg version="1.0" xmlns="http://www.w3.org/2000/svg"
 width="1000.000000pt" height="1000.000000pt" viewBox="0 0 1000.000000 1000.000000"
 preserveAspectRatio="xMidYMid meet">
<metadata>
Created by potrace 1.14, written by Peter Selinger 2001-2017
</metadata>
<g transform="translate(0.000000,1000.000000) scale(0.100000,-0.100000)"
fill="#000000" stroke="none">
<path d="M4739 9945 c-2 -1 -49 -6 -104 -9 -55 -3 -116 -8 -135 -11 -19 -2
-57 -7 -85 -10 -117 -12 -365 -52 -445 -71 -14 -3 -36 -8 -49 -10 -75 -15
-346 -88 -471 -129 -170 -55 -424 -154 -565 -220 -55 -26 -109 -51 -120 -56
-123 -54 -473 -263 -657 -392 -117 -82 -334 -252 -438 -343 -57 -50 -371 -363
-426 -424 -79 -89 -228 -277 -309 -390 -79 -109 -117 -167 -220 -330 -171
-271 -369 -704 -478 -1045 -64 -200 -126 -443 -143 -553 -3 -20 -9 -53 -14
-72 -4 -19 -11 -57 -15 -83 -3 -27 -8 -58 -10 -69 -3 -11 -6 -39 -9 -62 -3
-22 -7 -57 -10 -76 -23 -162 -31 -308 -31 -585 0 -233 9 -445 20 -500 3 -11 7
-45 10 -75 7 -78 15 -132 32 -230 8 -47 17 -98 19 -115 17 -100 113 -490 134
-540 4 -11 24 -68 44 -126 93 -278 205 -529 368 -827 56 -103 180 -302 230
-369 21 -29 38 -56 38 -62 0 -5 4 -11 8 -13 4 -1 40 -46 78 -98 68 -92 187
-238 269 -330 22 -25 110 -115 195 -200 133 -133 199 -195 350 -324 60 -52
285 -218 395 -292 220 -149 504 -306 735 -408 58 -26 114 -51 125 -56 67 -31
439 -165 487 -175 27 -6 171 -45 198 -55 22 -7 115 -29 190 -45 14 -2 48 -9
75 -15 112 -24 239 -44 375 -60 52 -6 105 -13 117 -15 160 -26 868 -26 1003 0
9 2 47 6 85 9 39 4 77 9 85 11 8 2 40 7 70 11 104 13 123 16 260 45 52 11 106
22 120 25 56 12 229 57 290 75 36 11 72 22 81 24 20 4 168 54 194 65 11 5 63
24 115 43 242 89 623 275 820 401 278 178 400 266 599 429 75 62 217 193 316
292 194 193 206 207 371 405 20 25 77 99 126 165 48 66 92 125 98 132 5 7 10
16 10 22 0 5 3 11 8 13 4 2 35 46 68 98 286 446 492 917 625 1425 30 115 85
375 93 435 2 19 9 64 15 100 5 36 13 92 17 125 3 33 8 74 10 90 19 160 26 680
10 850 -4 44 -9 102 -11 130 -3 27 -7 66 -10 87 -3 21 -7 57 -10 81 -42 322
-138 708 -260 1037 -82 220 -221 522 -322 700 -93 162 -258 419 -334 520 -53
70 -248 310 -283 349 -151 168 -418 421 -611 580 -128 105 -330 245 -560 388
-173 107 -516 276 -740 363 -11 4 -42 17 -70 28 -218 87 -644 203 -905 246
-19 3 -46 8 -60 11 -45 9 -208 29 -410 51 -54 6 -656 14 -661 9z"/>
</g>
</svg>
